<svg width="65" height="59" viewBox="0 0 65 59" fill="none" xmlns="http://www.w3.org/2000/svg">
<path d="M53.5404 58.9947C49.4097 58.9947 45.998 58.1319 43.3052 56.4064C40.6385 54.7071 38.9914 52.0796 38.364 48.5241L38.011 46.4456C37.3836 42.8378 36.8215 39.9358 36.3248 37.7398C35.8542 35.5437 35.2529 33.6875 34.5208 32.1711C33.7888 30.6548 32.9391 29.8966 31.9718 29.8966C31.5797 29.8966 31.1744 30.0273 30.7561 30.2888V38.4849C30.7561 39.426 30.8999 40.2757 31.1875 41.0339C31.5012 41.7659 32.1025 42.3803 32.9914 42.877V43.426H19.1091V42.877C19.998 42.3803 20.5862 41.7528 20.8738 40.9947C21.1875 40.2365 21.3444 39.3999 21.3444 38.4849V20.8378C21.3444 19.5306 20.9914 18.5371 20.2855 17.8574C19.5797 17.1515 18.6646 16.7986 17.5404 16.7986C16.2071 16.7986 14.8215 17.2561 13.3836 18.1711C11.9457 19.06 10.7431 20.328 9.77575 21.975C8.80842 23.6221 8.32476 25.5175 8.32476 27.6613C8.32476 29.3868 8.53391 30.8378 8.95222 32.0143C9.39666 33.1646 9.95875 34.0143 10.6385 34.5633C11.3182 35.1123 11.998 35.3868 12.6777 35.3868C13.3574 35.3868 13.9195 35.1384 14.364 34.6417C14.8346 34.145 15.0699 33.4914 15.0699 32.6809C15.0699 32.2103 14.9261 31.7659 14.6385 31.3476C14.3771 30.9032 13.9326 30.6417 13.3052 30.5633C13.3052 30.0666 13.5797 29.5829 14.1287 29.1123C14.6777 28.6156 15.3052 28.3672 16.011 28.3672C16.9784 28.3672 17.7365 28.6286 18.2855 29.1515C18.8346 29.6482 19.1091 30.2757 19.1091 31.0339C19.1091 32.8378 18.4947 34.2103 17.2659 35.1515C16.0633 36.0665 14.5078 36.5241 12.5993 36.5241C10.7431 36.5241 8.87378 36.0927 6.99143 35.2299C5.13522 34.3411 3.59274 33.0862 2.36398 31.4652C1.16137 29.8182 0.560059 27.9228 0.560059 25.779C0.560059 24.1058 1.09601 22.511 2.1679 20.9947C3.2398 19.4783 4.79535 18.2496 6.83457 17.3084C8.89993 16.3672 11.3444 15.8966 14.1679 15.8966H32.9914V16.4456C32.1025 16.9424 31.5012 17.5698 31.1875 18.328C30.8999 19.06 30.7561 19.8966 30.7561 20.8378V29.1515L35.0699 24.5241C37.5535 21.8835 39.5012 19.243 40.913 16.6025C42.3248 13.9358 43.0306 11.6744 43.0306 9.81818C43.0306 8.58943 42.6908 7.63518 42.011 6.95544C41.3313 6.24956 40.2986 5.89662 38.913 5.89662C38.547 5.89662 38.2725 5.90969 38.0895 5.93583C38.4555 4.1842 39.3313 2.81165 40.7169 1.81818C42.1287 0.82472 43.6842 0.327988 45.3836 0.327988C47.0306 0.327988 48.4293 0.811649 49.5797 1.77897C50.73 2.72015 51.3052 4.07962 51.3052 5.8574C51.3052 8.07962 50.0241 10.8901 47.462 14.2888C44.9261 17.6613 40.8738 21.5175 35.3052 25.8574C36.1679 25.5175 37.0045 25.3476 37.815 25.3476C39.7496 25.3476 41.2659 26.145 42.364 27.7398C43.4882 29.3345 44.3117 31.2822 44.8346 33.5829C45.3574 35.8835 45.8672 38.9162 46.364 42.6809C46.8346 46.1058 47.279 48.7986 47.6973 50.7594C48.1156 52.7463 48.7431 54.4064 49.5797 55.7398C50.4424 57.0731 51.6058 57.7398 53.0699 57.7398C54.1679 57.7398 55.1221 57.4783 55.9326 56.9554C56.7431 56.4587 57.3574 55.8051 57.7757 54.9947C58.194 54.2103 58.4032 53.3868 58.4032 52.5241C58.4032 51.5306 58.1287 50.6679 57.5797 49.9358C57.0306 49.2299 56.2333 48.8247 55.1875 48.7201C55.3444 48.0143 55.7627 47.3999 56.4424 46.877C57.1221 46.3803 57.8803 46.1319 58.7169 46.1319C59.9195 46.1319 60.9653 46.3672 61.8542 46.8378C62.7431 47.3345 63.4097 47.9881 63.8542 48.7986C64.3248 49.609 64.5601 50.4848 64.5601 51.426C64.5601 52.6809 64.1548 53.8835 63.3444 55.0339C62.5339 56.1842 61.2921 57.1254 59.6189 57.8574C57.9718 58.6156 55.9457 58.9947 53.5404 58.9947Z" fill="white"/>
</svg>
