<svg width="208" height="55" viewBox="0 0 208 55" fill="none" xmlns="http://www.w3.org/2000/svg">
  <path d="M122.651 8H121.756V47H122.651V8Z" fill="white"/>
  <path
    d="M13.2915 37.0644C7.3028 37.0644 3.21948 33.1905 3.21948 27.4994C3.21948 21.7749 7.16495 17.9009 13.2578 17.9009C15.7513 17.9009 17.9997 18.6199 20.7352 20.8496L22.5364 18.5198C19.6293 16.0504 16.514 15.0918 13.2241 15.0918C5.36682 15.0888 0 20.4037 0 27.466C0 34.8013 5.71297 39.91 13.1536 39.91C17.0991 39.91 20.4932 38.469 22.9162 36.2089L21.2192 33.9792C18.7257 36.036 16.4436 37.0644 13.2915 37.0644Z"
    fill="white"/>
  <path d="M28.4802 15.5352H25.4404V39.467H41.4275V36.7652H28.4802V15.5352Z" fill="white"/>
  <path
    d="M76.168 15.5352L64.4971 39.467H67.7784L70.2989 34.1638H83.8335L86.3541 39.467H89.5987L77.9981 15.5352H76.168ZM71.576 31.5138L76.6171 20.8744L77.0998 19.7855L77.549 20.8744L82.5901 31.5138H71.576Z"
    fill="white"/>
  <path d="M46.9735 28.4038H60.5753V25.7383H43.9336V39.4676H62.0266V36.7689H46.9735V28.4038Z" fill="white"/>
  <path d="M61.938 15.5352H43.9336V18.2157H61.938V15.5352Z" fill="white"/>
  <path d="M61.938 15.5352H43.9336V18.2157H61.938V15.5352Z" fill="url(#paint0_linear_3_50288)"/>
  <path
    d="M106.423 30.3057C109.979 29.4162 112.188 26.784 112.188 23.0233C112.188 17.7589 108.253 15.5352 103.52 15.5352H92.3359V39.467H95.3757V30.6446H103.178L109.67 39.467H113.401L106.426 30.3027L106.423 30.3057ZM95.3757 27.9458V18.2006H103.316C106.664 18.2006 108.943 19.3292 108.943 23.0566C108.943 26.2031 107.113 27.9458 103.49 27.9458H95.3757Z"
    fill="white"/>
  <path
    d="M200.003 35.8089H189.105L187.687 39.32H181.142L191.637 15.6836H197.507L208 39.32H201.419L200 35.8089H200.003ZM197.943 30.7081L195.142 23.8204L194.569 22.2665L193.996 23.8204L191.195 30.7081H197.943Z"
    fill="white"/>
  <path
    d="M173.968 25.8043H171.6V23.4414H168.214V25.8043H165.847V29.1864H168.214V31.5493H171.6V29.1864H173.968V25.8043Z"
    fill="white"/>
  <path
    d="M173.968 25.8043H171.6V23.4414H168.214V25.8043H165.847V29.1864H168.214V31.5493H171.6V29.1864H173.968V25.8043Z"
    fill="url(#paint1_linear_3_50288)"/>
  <path
    d="M170 39.9069C162.753 39.9069 156.671 34.7989 156.671 27.4645C156.671 20.1301 162.373 15.0918 169.86 15.0918C174.429 15.0918 178.174 17.0119 180.098 19.4112L175.839 23.318C174.499 21.8105 172.438 20.6457 169.93 20.6457C165.842 20.6457 163.027 23.4211 163.027 27.4342C163.027 31.4472 165.981 34.2893 170.207 34.2893C172.541 34.2893 174.569 33.434 176.766 31.2743L180.545 35.1811C178.347 37.7867 174.739 39.91 170 39.91V39.9069Z"
    fill="white"/>
  <path
    d="M149.869 35.8089H138.97L137.552 39.32H131.007L141.502 15.6836H147.372L157.865 39.32H151.284L149.866 35.8089H149.869ZM147.811 30.7081L145.011 23.8204L144.437 22.2665L143.864 23.8204L141.063 30.7081H147.811Z"
    fill="white"/>
  <defs>
    <linearGradient id="paint0_linear_3_50288" x1="43.9336" y1="16.8754" x2="61.938" y2="16.8754"
                    gradientUnits="userSpaceOnUse">
      <stop offset="0.11" stop-color="#E74A09"/>
      <stop offset="1" stop-color="#FF9900"/>
    </linearGradient>
    <linearGradient id="paint1_linear_3_50288" x1="165.725" y1="31.5493" x2="172.665" y2="22.3861"
                    gradientUnits="userSpaceOnUse">
      <stop offset="0.21" stop-color="#E74A09"/>
      <stop offset="0.895" stop-color="#FF9900"/>
    </linearGradient>
  </defs>
</svg>
